<svg width="130" height="130" viewBox="0 0 130 130" fill="none" xmlns="http://www.w3.org/2000/svg">
<path d="M0 0V130H130V0H0ZM70.7455 101.388C70.7455 114.04 63.317 119.815 52.4933 119.815C42.7143 119.815 37.0558 114.766 34.154 108.643L44.1071 102.636C46.0223 106.031 47.7634 108.904 51.971 108.904C55.9754 108.904 58.529 107.337 58.529 101.214V59.6897H70.7455V101.388ZM99.6473 119.815C88.3013 119.815 80.9598 114.417 77.3906 107.337L87.3437 101.592C89.9554 105.857 93.3795 109.02 99.3862 109.02C104.435 109.02 107.685 106.496 107.685 102.984C107.685 98.8058 104.377 97.3259 98.7768 94.8594L95.7299 93.5536C86.9085 89.8103 81.0759 85.0804 81.0759 75.1272C81.0759 65.9576 88.0692 58.9933 98.9509 58.9933C106.728 58.9933 112.299 61.692 116.304 68.7723L106.786 74.8661C104.696 71.1228 102.433 69.6429 98.9219 69.6429C95.3527 69.6429 93.0893 71.9062 93.0893 74.8661C93.0893 78.5223 95.3527 80.0022 100.605 82.2946L103.652 83.6004C114.04 88.0402 119.873 92.596 119.873 102.81C119.873 113.779 111.225 119.815 99.6473 119.815Z" fill="#402A6D"/>
</svg>
