<svg width="160" height="161" viewBox="0 0 160 161" fill="none" xmlns="http://www.w3.org/2000/svg">
<path d="M118.741 150.032C118.146 150.347 118.196 150.447 118.766 150.157C118.951 150.082 119.106 149.977 119.241 149.852C119.241 149.747 119.241 149.747 118.741 150.032ZM119.941 149.382C119.656 149.617 119.656 149.617 119.996 149.462C120.176 149.357 120.336 149.257 120.336 149.227C120.336 149.092 120.256 149.122 119.941 149.382ZM120.721 148.912C120.436 149.147 120.436 149.147 120.776 148.992C120.961 148.887 121.116 148.777 121.116 148.752C121.116 148.627 121.036 148.652 120.721 148.912ZM121.511 148.447C121.226 148.682 121.226 148.682 121.556 148.522C121.741 148.422 121.896 148.317 121.896 148.287C121.896 148.162 121.816 148.187 121.511 148.447ZM122.576 147.742C122.031 148.107 121.841 148.342 122.341 148.082C122.676 147.877 123.246 147.427 123.146 147.427C122.931 147.507 122.751 147.642 122.571 147.742H122.576ZM74.7627 0.0586015C74.3977 0.083602 73.3027 0.183604 72.3427 0.263606C49.6035 2.32365 28.3291 14.5639 14.8445 33.4193C7.38977 43.7545 2.54992 55.7597 0.724977 68.365C0.0799975 72.7651 0 74.0651 0 80.0302C0 85.9903 0.0799975 87.2704 0.724977 91.6705C5.07984 121.726 26.4592 146.957 55.4383 156.307C60.6531 157.972 66.1179 159.122 72.3427 159.827C74.7627 160.087 85.2273 160.087 87.6473 159.827C98.4069 158.627 107.492 155.972 116.481 151.387C117.861 150.687 118.121 150.502 117.936 150.347C113.536 144.542 109.217 138.731 104.892 132.871L92.1071 115.606L76.0926 91.8805C70.7528 83.9403 65.393 76.0201 59.9481 68.16C59.8931 68.16 59.8231 78.7052 59.7931 91.5655C59.7381 114.091 59.7381 115.006 59.4531 115.526C59.1682 116.151 58.6982 116.671 58.0732 116.961C57.5782 117.196 57.1332 117.246 54.7683 117.246H52.0634L51.3584 116.806C50.9184 116.521 50.5534 116.126 50.3184 115.661L49.9784 114.956L50.0034 83.6003L50.0584 52.2447L50.5534 51.6196C50.8684 51.2346 51.2584 50.9196 51.6984 50.6846C52.3534 50.3696 52.6134 50.3196 55.3183 50.3196C58.4932 50.3196 59.0182 50.4446 59.8531 51.3596C66.3329 61.0198 72.7927 70.705 79.1475 80.4202C89.5422 96.1806 103.732 117.686 110.707 128.236L123.391 147.432L124.016 147.017C130.111 142.952 135.656 138.111 140.441 132.591C150.52 121.051 157.06 106.856 159.275 91.7055C159.92 87.3054 160 86.0003 160 80.0402C160 74.0751 159.92 72.8001 159.275 68.4C154.92 38.3444 133.541 13.1139 104.562 3.75868C99.1419 2.04364 93.5671 0.873618 87.9223 0.273606C86.4073 0.118603 76.0676 -0.0664011 74.7677 0.0686017L74.7627 0.0586015ZM107.497 48.4446C108.252 48.8046 108.822 49.4846 109.082 50.2646C109.217 50.6846 109.242 59.3798 109.217 78.9652L109.162 107.086L104.217 99.4856L99.2419 91.8805V71.4651C99.2419 58.2298 99.2969 50.8096 99.3669 50.4446C99.6019 49.6096 100.172 48.9096 100.932 48.4696C101.552 48.1546 101.792 48.1296 104.267 48.1296C106.582 48.1296 106.977 48.1546 107.497 48.4446Z" fill="#402A6D"/>
</svg>
