<svg width="166" height="147" viewBox="0 0 166 147" fill="none" xmlns="http://www.w3.org/2000/svg">
<path d="M135.588 48.09C133.838 47.505 132.087 46.9525 130.336 46.4325C130.628 45.23 130.887 44.0275 131.146 42.825C135.134 23.455 132.508 7.88749 123.657 2.75249C115.13 -2.15501 101.221 2.94749 87.15 15.2325C85.7559 16.435 84.3941 17.7025 83.0973 18.97C82.2219 18.125 81.3141 17.28 80.4062 16.4675C65.6543 3.33749 50.8699 -2.18751 42.0188 2.97999C33.5242 7.91999 30.9953 22.5775 34.5617 40.9075C34.9184 42.7275 35.3074 44.515 35.7613 46.335C33.6863 46.92 31.6437 47.57 29.7309 48.2525C12.4176 54.265 0 63.755 0 73.57C0 83.71 13.2281 93.8825 31.2223 100.057C32.6813 100.545 34.1402 101.032 35.6316 101.455C35.1453 103.405 34.7238 105.322 34.3348 107.305C30.9305 125.342 33.5891 139.642 42.0836 144.55C50.8375 149.62 65.557 144.42 79.8875 131.842C81.0223 130.835 82.157 129.795 83.2918 128.69C84.7184 130.087 86.2098 131.42 87.7012 132.72C101.578 144.68 115.292 149.522 123.754 144.615C132.508 139.545 135.361 124.172 131.665 105.452C131.373 104.022 131.049 102.56 130.693 101.065C131.73 100.772 132.735 100.447 133.74 100.122C152.448 93.915 166 83.8725 166 73.57C166 63.7225 153.226 54.1675 135.588 48.09ZM91.7215 20.4975C103.782 9.96749 115.033 5.83999 120.155 8.79749C125.635 11.95 127.742 24.69 124.305 41.4275C124.079 42.5325 123.852 43.605 123.56 44.6775C116.362 43.0525 109.067 41.8825 101.74 41.2325C97.525 35.1875 92.9211 29.4025 87.9281 23.975C89.1926 22.7725 90.4246 21.635 91.7215 20.4975ZM54.2094 90.4375C55.8629 93.265 57.5488 96.0925 59.332 98.855C54.2742 98.3025 49.2488 97.49 44.2883 96.4175C45.7148 91.7375 47.498 86.895 49.573 81.955C51.0645 84.815 52.5883 87.6425 54.2094 90.4375ZM44.3855 51.34C49.0543 50.3 54.0148 49.455 59.1699 48.805C57.4516 51.5025 55.7656 54.265 54.177 57.06C52.5883 59.8225 51.032 62.65 49.573 65.51C47.5305 60.6675 45.8121 55.9225 44.3855 51.34ZM53.2691 73.7325C55.409 69.2475 57.7434 64.86 60.2074 60.5375C62.6715 56.215 65.3301 52.0225 68.1184 47.895C72.9816 47.5375 77.9422 47.3425 83 47.3425C88.0578 47.3425 93.0508 47.5375 97.8816 47.895C100.637 51.99 103.264 56.1825 105.76 60.4725C108.257 64.7625 110.591 69.15 112.796 73.6025C110.623 78.0875 108.289 82.5075 105.793 86.8625C103.329 91.185 100.702 95.3775 97.9465 99.5375C93.1156 99.895 88.0902 100.057 83 100.057C77.9098 100.057 72.9816 99.895 68.2156 99.6025C65.3949 95.475 62.7363 91.25 60.2398 86.9275C57.7434 82.605 55.4414 78.2175 53.2691 73.7325ZM111.823 90.3725C113.477 87.5125 115.033 84.62 116.557 81.695C118.632 86.4075 120.447 91.185 122.036 96.0925C117.011 97.23 111.92 98.1075 106.798 98.6925C108.548 95.9625 110.202 93.1675 111.823 90.3725ZM116.492 65.51C114.968 62.65 113.412 59.79 111.791 56.995C110.202 54.2325 108.548 51.5025 106.83 48.805C112.05 49.455 117.043 50.3325 121.712 51.405C120.22 56.215 118.47 60.895 116.492 65.51ZM83.0648 28.9475C86.4691 32.6525 89.6789 36.5525 92.6617 40.5825C86.2422 40.29 79.7902 40.29 73.3707 40.5825C76.548 36.39 79.8227 32.49 83.0648 28.9475ZM45.4555 9.02499C50.9023 5.83999 62.9957 10.39 75.7375 21.7C76.548 22.415 77.3586 23.195 78.2016 23.975C73.1762 29.4025 68.5398 35.1875 64.2926 41.2325C56.9652 41.8825 49.7027 43.02 42.5051 44.6125C42.0836 42.955 41.727 41.265 41.3703 39.575C38.3227 23.845 40.3328 11.9825 45.4555 9.02499ZM37.5121 94.695C36.1504 94.305 34.8211 93.8825 33.4918 93.4275C26.5859 91.25 18.7398 87.805 13.066 83.2875C9.79141 81.0125 7.58672 77.5025 6.9707 73.57C6.9707 67.6225 17.216 60.0175 32.0004 54.85C33.8484 54.2 35.7289 53.615 37.6094 53.0625C39.8141 60.115 42.4727 67.0375 45.5527 73.7325C42.4402 80.525 39.7492 87.545 37.5121 94.695ZM75.316 126.545C69.9664 131.452 63.7738 135.352 57.0301 138.017C53.4312 139.74 49.2813 139.902 45.5852 138.44C40.4301 135.45 38.2902 123.977 41.2082 108.54C41.5648 106.72 41.9539 104.9 42.4078 103.112C49.6703 104.672 56.9977 105.745 64.4223 106.297C68.702 112.375 73.4031 118.192 78.4285 123.652C77.391 124.66 76.3535 125.635 75.316 126.545ZM83.2594 118.647C79.9523 115.072 76.6453 111.107 73.4355 106.85C76.548 106.98 79.7578 107.045 83 107.045C86.3395 107.045 89.6141 106.98 92.8562 106.817C89.8734 110.945 86.6637 114.877 83.2594 118.647ZM125.635 128.397C125.343 132.362 123.398 136.067 120.285 138.57C115.13 141.56 104.139 137.66 92.2727 127.455C90.9109 126.285 89.5492 125.017 88.1551 123.717C93.1156 118.225 97.6871 112.407 101.837 106.297C109.262 105.68 116.654 104.542 123.949 102.885C124.273 104.217 124.565 105.55 124.824 106.85C126.413 113.87 126.672 121.182 125.635 128.397ZM131.536 93.46C130.628 93.7525 129.72 94.045 128.78 94.305C126.51 87.22 123.722 80.2975 120.512 73.57C123.625 66.94 126.251 60.115 128.455 53.1275C130.141 53.615 131.763 54.135 133.319 54.655C148.427 59.855 159.029 67.59 159.029 73.505C159.029 79.875 147.714 88.0975 131.536 93.46ZM83 88.585C91.2027 88.585 97.8492 81.9225 97.8492 73.7C97.8492 65.4775 91.2027 58.815 83 58.815C74.7973 58.815 68.1508 65.4775 68.1508 73.7C68.1508 81.9225 74.7973 88.585 83 88.585Z" fill="#402A6D"/>
</svg>
