<svg width="130" height="130" viewBox="0 0 130 130" fill="none" xmlns="http://www.w3.org/2000/svg">
<path d="M126.905 0H3.09524C1.38357 0 0 1.38667 0 3.09524V126.905C0 128.613 1.38357 130 3.09524 130H126.905C128.616 130 130 128.613 130 126.905V3.09524C130 1.38667 128.616 0 126.905 0ZM77.381 69.4726H61.9048V117.619H49.5238V69.4726H34.0476V58.8095H77.381V69.4726ZM80.8507 114.87V102C80.8507 102 87.88 107.3 96.3145 107.3C104.749 107.3 104.424 101.784 104.424 101.029C104.424 93.0243 80.5257 93.0243 80.5257 75.2917C80.5257 51.1767 115.347 60.6914 115.347 60.6914L114.914 72.1562C114.914 72.1562 109.073 68.2624 102.477 68.2624C95.8812 68.2624 93.501 71.3979 93.501 74.75C93.501 83.4012 117.616 82.5376 117.616 99.9483C117.619 126.765 80.8507 114.87 80.8507 114.87Z" fill="#402A6D"/>
</svg>
