<svg width="160" height="160" viewBox="0 0 160 160" fill="none" xmlns="http://www.w3.org/2000/svg">
<path d="M17.3226 52.0645L50.0645 141.742C27.1613 130.645 11.3871 107.161 11.3871 80C11.3871 70.0323 13.5161 60.6129 17.3226 52.0645ZM126.323 76.5484C126.323 68.0645 123.29 62.1935 120.677 57.6129C117.194 51.9677 113.935 47.1613 113.935 41.5161C113.935 35.1935 118.71 29.3226 125.452 29.3226C125.742 29.3226 126.032 29.3548 126.355 29.3871C114.129 18.1935 97.871 11.3548 80 11.3548C56.0323 11.3548 34.9355 23.6452 22.6452 42.2903C24.2581 42.3548 25.7742 42.3871 27.0645 42.3871C34.2258 42.3871 45.3548 41.5161 45.3548 41.5161C49.0645 41.2903 49.4839 46.7419 45.8064 47.1613C45.8064 47.1613 42.0968 47.5806 37.9677 47.8064L62.9677 122.129L78 77.0968L67.3226 47.8064C63.6129 47.5806 60.129 47.1613 60.129 47.1613C56.4194 46.9355 56.871 41.2903 60.5484 41.5161C60.5484 41.5161 71.871 42.3871 78.6129 42.3871C85.7742 42.3871 96.9032 41.5161 96.9032 41.5161C100.613 41.2903 101.032 46.7419 97.3548 47.1613C97.3548 47.1613 93.6452 47.5806 89.5161 47.8064L114.323 121.581L121.161 98.7097C124.065 89.2258 126.323 82.4194 126.323 76.5484ZM81.1936 86L60.6129 145.839C66.7742 147.645 73.2581 148.645 80 148.645C88 148.645 95.6452 147.258 102.774 144.742C102.581 144.452 102.419 144.129 102.29 143.806L81.1936 86ZM140.226 47.0645C140.516 49.2581 140.677 51.5806 140.677 54.129C140.677 61.0968 139.387 68.9032 135.452 78.7097L114.484 139.323C134.903 127.419 148.613 105.323 148.613 80C148.613 68.0645 145.581 56.8387 140.226 47.0645ZM160 80C160 124.129 124.097 160 80 160C35.871 160 0 124.097 0 80C0 35.871 35.871 0 80 0C124.097 0 160 35.871 160 80ZM156.323 80C156.323 37.9032 122.065 3.67742 80 3.67742C37.9032 3.67742 3.67742 37.9032 3.67742 80C3.67742 122.097 37.9355 156.323 80 156.323C122.097 156.323 156.323 122.097 156.323 80Z" fill="#402A6D"/>
</svg>
